<?xml version="1.0" encoding="UTF-8"?>
<svg xmlns="http://www.w3.org/2000/svg" xmlns:xlink="http://www.w3.org/1999/xlink" width="3000" height="3000" viewBox="0 0 3000 3000">
<rect x="-300" y="-300" width="3600" height="3600" fill="rgb(100%, 100%, 100%)" fill-opacity="1"/>
<path fill="none" stroke-width="673.456" stroke-linecap="butt" stroke-linejoin="round" stroke="rgb(0%, 0%, 0%)" stroke-opacity="1" stroke-miterlimit="4" d="M 22848.90625 14999.882812 C 22848.90625 12893.710938 22021.992188 10873.789062 20550 9384.492188 C 19078.085938 7895.195312 17081.71875 7058.476562 15000.117188 7058.476562 C 12918.398438 7058.476562 10921.992188 7895.195312 9450.117188 9384.492188 C 7978.164062 10873.789062 7151.25 12893.710938 7151.25 14999.882812 C 7151.25 17106.09375 7978.164062 19126.09375 9450.117188 20615.390625 C 10921.992188 22104.6875 12918.398438 22941.40625 15000.117188 22941.40625 C 17081.71875 22941.40625 19078.085938 22104.6875 20550 20615.390625 C 22021.992188 19126.09375 22848.90625 17106.09375 22848.90625 14999.882812 Z M 22848.90625 14999.882812 " transform="matrix(0.1, 0, 0, -0.1, 0, 3000)"/>
</svg>
